<svg width="900" height="380" viewBox="0 0 900 380" fill="none" xmlns="http://www.w3.org/2000/svg" role="img" aria-labelledby="title desc">
  <title id="title">Legal Trap chess replay</title>
  <desc id="desc">Animated replay of the Legal Trap chess sequence ending with 7. Nd5 checkmate.</desc>
  <defs>
    <filter id="glow" x="-60%" y="-60%" width="220%" height="220%">
      <feGaussianBlur stdDeviation="3" result="blur"/>
      <feMerge><feMergeNode in="blur"/><feMergeNode in="SourceGraphic"/></feMerge>
    </filter>
    <style>
      .bg { fill: #0d1117; }
      .sq-dark { fill: #161b22; }
      .sq-light { fill: #1f2937; }
      .white-piece { fill: #f0f6fc; }
      .black-piece { fill: #8b949e; }
      .piece { font: 23px Georgia, serif; text-anchor: middle; dominant-baseline: middle; }
      .prompt { fill: #7ee787; font: 600 15px ui-monospace, SFMono-Regular, Menlo, Consolas, monospace; }
      .dim { fill: #6e7681; font: 13px ui-monospace, SFMono-Regular, Menlo, Consolas, monospace; }
      .move { fill: #8b949e; font: 14px ui-monospace, SFMono-Regular, Menlo, Consolas, monospace; }
      .move-hot { fill: #ffa657; font: 700 14px ui-monospace, SFMono-Regular, Menlo, Consolas, monospace; filter: url(#glow); }
      .status { fill: #7ee787; font: 700 15px ui-monospace, SFMono-Regular, Menlo, Consolas, monospace; }
      .mate { fill: #ff7b72; font: 800 28px ui-monospace, SFMono-Regular, Menlo, Consolas, monospace; filter: url(#glow); }
      .coord { fill: #6e7681; font: 11px ui-monospace, SFMono-Regular, Menlo, Consolas, monospace; text-anchor: middle; }
      .box { fill: #0b1118; stroke: #30363d; }
    </style>
  </defs>

  <rect class="bg" width="900" height="380" rx="14"/>
  <text class="prompt" x="34" y="34">plastfw@github:~$ ./chess --replay legal-trap</text>
  <text class="dim" x="34" y="350">full replay · Legal Trap · final move: 7. Nd5#</text>

  <g transform="translate(0 0)">
<rect x="46" y="56" width="260" height="260" rx="10" fill="#0b1118" stroke="#30363d"/>
<rect class="sq-light" x="48" y="58" width="32" height="32"/>
<rect class="sq-dark" x="80" y="58" width="32" height="32"/>
<rect class="sq-light" x="112" y="58" width="32" height="32"/>
<rect class="sq-dark" x="144" y="58" width="32" height="32"/>
<rect class="sq-light" x="176" y="58" width="32" height="32"/>
<rect class="sq-dark" x="208" y="58" width="32" height="32"/>
<rect class="sq-light" x="240" y="58" width="32" height="32"/>
<rect class="sq-dark" x="272" y="58" width="32" height="32"/>
<rect class="sq-dark" x="48" y="90" width="32" height="32"/>
<rect class="sq-light" x="80" y="90" width="32" height="32"/>
<rect class="sq-dark" x="112" y="90" width="32" height="32"/>
<rect class="sq-light" x="144" y="90" width="32" height="32"/>
<rect class="sq-dark" x="176" y="90" width="32" height="32"/>
<rect class="sq-light" x="208" y="90" width="32" height="32"/>
<rect class="sq-dark" x="240" y="90" width="32" height="32"/>
<rect class="sq-light" x="272" y="90" width="32" height="32"/>
<rect class="sq-light" x="48" y="122" width="32" height="32"/>
<rect class="sq-dark" x="80" y="122" width="32" height="32"/>
<rect class="sq-light" x="112" y="122" width="32" height="32"/>
<rect class="sq-dark" x="144" y="122" width="32" height="32"/>
<rect class="sq-light" x="176" y="122" width="32" height="32"/>
<rect class="sq-dark" x="208" y="122" width="32" height="32"/>
<rect class="sq-light" x="240" y="122" width="32" height="32"/>
<rect class="sq-dark" x="272" y="122" width="32" height="32"/>
<rect class="sq-dark" x="48" y="154" width="32" height="32"/>
<rect class="sq-light" x="80" y="154" width="32" height="32"/>
<rect class="sq-dark" x="112" y="154" width="32" height="32"/>
<rect class="sq-light" x="144" y="154" width="32" height="32"/>
<rect class="sq-dark" x="176" y="154" width="32" height="32"/>
<rect class="sq-light" x="208" y="154" width="32" height="32"/>
<rect class="sq-dark" x="240" y="154" width="32" height="32"/>
<rect class="sq-light" x="272" y="154" width="32" height="32"/>
<rect class="sq-light" x="48" y="186" width="32" height="32"/>
<rect class="sq-dark" x="80" y="186" width="32" height="32"/>
<rect class="sq-light" x="112" y="186" width="32" height="32"/>
<rect class="sq-dark" x="144" y="186" width="32" height="32"/>
<rect class="sq-light" x="176" y="186" width="32" height="32"/>
<rect class="sq-dark" x="208" y="186" width="32" height="32"/>
<rect class="sq-light" x="240" y="186" width="32" height="32"/>
<rect class="sq-dark" x="272" y="186" width="32" height="32"/>
<rect class="sq-dark" x="48" y="218" width="32" height="32"/>
<rect class="sq-light" x="80" y="218" width="32" height="32"/>
<rect class="sq-dark" x="112" y="218" width="32" height="32"/>
<rect class="sq-light" x="144" y="218" width="32" height="32"/>
<rect class="sq-dark" x="176" y="218" width="32" height="32"/>
<rect class="sq-light" x="208" y="218" width="32" height="32"/>
<rect class="sq-dark" x="240" y="218" width="32" height="32"/>
<rect class="sq-light" x="272" y="218" width="32" height="32"/>
<rect class="sq-light" x="48" y="250" width="32" height="32"/>
<rect class="sq-dark" x="80" y="250" width="32" height="32"/>
<rect class="sq-light" x="112" y="250" width="32" height="32"/>
<rect class="sq-dark" x="144" y="250" width="32" height="32"/>
<rect class="sq-light" x="176" y="250" width="32" height="32"/>
<rect class="sq-dark" x="208" y="250" width="32" height="32"/>
<rect class="sq-light" x="240" y="250" width="32" height="32"/>
<rect class="sq-dark" x="272" y="250" width="32" height="32"/>
<rect class="sq-dark" x="48" y="282" width="32" height="32"/>
<rect class="sq-light" x="80" y="282" width="32" height="32"/>
<rect class="sq-dark" x="112" y="282" width="32" height="32"/>
<rect class="sq-light" x="144" y="282" width="32" height="32"/>
<rect class="sq-dark" x="176" y="282" width="32" height="32"/>
<rect class="sq-light" x="208" y="282" width="32" height="32"/>
<rect class="sq-dark" x="240" y="282" width="32" height="32"/>
<rect class="sq-light" x="272" y="282" width="32" height="32"/>
<text class="coord" x="64.0" y="332">a</text>
<text class="coord" x="96.0" y="332">b</text>
<text class="coord" x="128.0" y="332">c</text>
<text class="coord" x="160.0" y="332">d</text>
<text class="coord" x="192.0" y="332">e</text>
<text class="coord" x="224.0" y="332">f</text>
<text class="coord" x="256.0" y="332">g</text>
<text class="coord" x="288.0" y="332">h</text>
<text class="coord" x="34" y="78.0">8</text>
<text class="coord" x="34" y="110.0">7</text>
<text class="coord" x="34" y="142.0">6</text>
<text class="coord" x="34" y="174.0">5</text>
<text class="coord" x="34" y="206.0">4</text>
<text class="coord" x="34" y="238.0">3</text>
<text class="coord" x="34" y="270.0">2</text>
<text class="coord" x="34" y="302.0">1</text>
</g>
  <g opacity="0"><animate attributeName="opacity" values="1;0;0;0;0;0;0;0;0;0;0;0;0;0" dur="14s" repeatCount="indefinite" calcMode="discrete"/>
<text class="piece white-piece" x="64.0" y="298.0">♖</text>
<text class="piece white-piece" x="64.0" y="266.0">♙</text>
<text class="piece black-piece" x="64.0" y="106.0">♟</text>
<text class="piece black-piece" x="64.0" y="74.0">♜</text>
<text class="piece white-piece" x="96.0" y="298.0">♘</text>
<text class="piece white-piece" x="96.0" y="266.0">♙</text>
<text class="piece black-piece" x="96.0" y="106.0">♟</text>
<text class="piece black-piece" x="96.0" y="74.0">♞</text>
<text class="piece white-piece" x="128.0" y="298.0">♗</text>
<text class="piece white-piece" x="128.0" y="266.0">♙</text>
<text class="piece black-piece" x="128.0" y="106.0">♟</text>
<text class="piece black-piece" x="128.0" y="74.0">♝</text>
<text class="piece white-piece" x="160.0" y="298.0">♕</text>
<text class="piece white-piece" x="160.0" y="266.0">♙</text>
<text class="piece black-piece" x="160.0" y="106.0">♟</text>
<text class="piece black-piece" x="160.0" y="74.0">♛</text>
<text class="piece white-piece" x="192.0" y="298.0">♔</text>
<text class="piece white-piece" x="192.0" y="266.0">♙</text>
<text class="piece black-piece" x="192.0" y="106.0">♟</text>
<text class="piece black-piece" x="192.0" y="74.0">♚</text>
<text class="piece white-piece" x="224.0" y="298.0">♗</text>
<text class="piece white-piece" x="224.0" y="266.0">♙</text>
<text class="piece black-piece" x="224.0" y="106.0">♟</text>
<text class="piece black-piece" x="224.0" y="74.0">♝</text>
<text class="piece white-piece" x="256.0" y="298.0">♘</text>
<text class="piece white-piece" x="256.0" y="266.0">♙</text>
<text class="piece black-piece" x="256.0" y="106.0">♟</text>
<text class="piece black-piece" x="256.0" y="74.0">♞</text>
<text class="piece white-piece" x="288.0" y="298.0">♖</text>
<text class="piece white-piece" x="288.0" y="266.0">♙</text>
<text class="piece black-piece" x="288.0" y="106.0">♟</text>
<text class="piece black-piece" x="288.0" y="74.0">♜</text>
</g>
<g opacity="0"><animate attributeName="opacity" values="0;1;0;0;0;0;0;0;0;0;0;0;0;0" dur="14s" repeatCount="indefinite" calcMode="discrete"/>
<text class="piece white-piece" x="64.0" y="298.0">♖</text>
<text class="piece white-piece" x="64.0" y="266.0">♙</text>
<text class="piece black-piece" x="64.0" y="106.0">♟</text>
<text class="piece black-piece" x="64.0" y="74.0">♜</text>
<text class="piece white-piece" x="96.0" y="298.0">♘</text>
<text class="piece white-piece" x="96.0" y="266.0">♙</text>
<text class="piece black-piece" x="96.0" y="106.0">♟</text>
<text class="piece black-piece" x="96.0" y="74.0">♞</text>
<text class="piece white-piece" x="128.0" y="298.0">♗</text>
<text class="piece white-piece" x="128.0" y="266.0">♙</text>
<text class="piece black-piece" x="128.0" y="106.0">♟</text>
<text class="piece black-piece" x="128.0" y="74.0">♝</text>
<text class="piece white-piece" x="160.0" y="298.0">♕</text>
<text class="piece white-piece" x="160.0" y="266.0">♙</text>
<text class="piece black-piece" x="160.0" y="106.0">♟</text>
<text class="piece black-piece" x="160.0" y="74.0">♛</text>
<text class="piece white-piece" x="192.0" y="298.0">♔</text>
<text class="piece white-piece" x="192.0" y="202.0">♙</text>
<text class="piece black-piece" x="192.0" y="106.0">♟</text>
<text class="piece black-piece" x="192.0" y="74.0">♚</text>
<text class="piece white-piece" x="224.0" y="298.0">♗</text>
<text class="piece white-piece" x="224.0" y="266.0">♙</text>
<text class="piece black-piece" x="224.0" y="106.0">♟</text>
<text class="piece black-piece" x="224.0" y="74.0">♝</text>
<text class="piece white-piece" x="256.0" y="298.0">♘</text>
<text class="piece white-piece" x="256.0" y="266.0">♙</text>
<text class="piece black-piece" x="256.0" y="106.0">♟</text>
<text class="piece black-piece" x="256.0" y="74.0">♞</text>
<text class="piece white-piece" x="288.0" y="298.0">♖</text>
<text class="piece white-piece" x="288.0" y="266.0">♙</text>
<text class="piece black-piece" x="288.0" y="106.0">♟</text>
<text class="piece black-piece" x="288.0" y="74.0">♜</text>
</g>
<g opacity="0"><animate attributeName="opacity" values="0;0;1;0;0;0;0;0;0;0;0;0;0;0" dur="14s" repeatCount="indefinite" calcMode="discrete"/>
<text class="piece white-piece" x="64.0" y="298.0">♖</text>
<text class="piece white-piece" x="64.0" y="266.0">♙</text>
<text class="piece black-piece" x="64.0" y="106.0">♟</text>
<text class="piece black-piece" x="64.0" y="74.0">♜</text>
<text class="piece white-piece" x="96.0" y="298.0">♘</text>
<text class="piece white-piece" x="96.0" y="266.0">♙</text>
<text class="piece black-piece" x="96.0" y="106.0">♟</text>
<text class="piece black-piece" x="96.0" y="74.0">♞</text>
<text class="piece white-piece" x="128.0" y="298.0">♗</text>
<text class="piece white-piece" x="128.0" y="266.0">♙</text>
<text class="piece black-piece" x="128.0" y="106.0">♟</text>
<text class="piece black-piece" x="128.0" y="74.0">♝</text>
<text class="piece white-piece" x="160.0" y="298.0">♕</text>
<text class="piece white-piece" x="160.0" y="266.0">♙</text>
<text class="piece black-piece" x="160.0" y="106.0">♟</text>
<text class="piece black-piece" x="160.0" y="74.0">♛</text>
<text class="piece white-piece" x="192.0" y="298.0">♔</text>
<text class="piece white-piece" x="192.0" y="202.0">♙</text>
<text class="piece black-piece" x="192.0" y="170.0">♟</text>
<text class="piece black-piece" x="192.0" y="74.0">♚</text>
<text class="piece white-piece" x="224.0" y="298.0">♗</text>
<text class="piece white-piece" x="224.0" y="266.0">♙</text>
<text class="piece black-piece" x="224.0" y="106.0">♟</text>
<text class="piece black-piece" x="224.0" y="74.0">♝</text>
<text class="piece white-piece" x="256.0" y="298.0">♘</text>
<text class="piece white-piece" x="256.0" y="266.0">♙</text>
<text class="piece black-piece" x="256.0" y="106.0">♟</text>
<text class="piece black-piece" x="256.0" y="74.0">♞</text>
<text class="piece white-piece" x="288.0" y="298.0">♖</text>
<text class="piece white-piece" x="288.0" y="266.0">♙</text>
<text class="piece black-piece" x="288.0" y="106.0">♟</text>
<text class="piece black-piece" x="288.0" y="74.0">♜</text>
</g>
<g opacity="0"><animate attributeName="opacity" values="0;0;0;1;0;0;0;0;0;0;0;0;0;0" dur="14s" repeatCount="indefinite" calcMode="discrete"/>
<text class="piece white-piece" x="64.0" y="298.0">♖</text>
<text class="piece white-piece" x="64.0" y="266.0">♙</text>
<text class="piece black-piece" x="64.0" y="106.0">♟</text>
<text class="piece black-piece" x="64.0" y="74.0">♜</text>
<text class="piece white-piece" x="96.0" y="298.0">♘</text>
<text class="piece white-piece" x="96.0" y="266.0">♙</text>
<text class="piece black-piece" x="96.0" y="106.0">♟</text>
<text class="piece black-piece" x="96.0" y="74.0">♞</text>
<text class="piece white-piece" x="128.0" y="298.0">♗</text>
<text class="piece white-piece" x="128.0" y="266.0">♙</text>
<text class="piece black-piece" x="128.0" y="106.0">♟</text>
<text class="piece black-piece" x="128.0" y="74.0">♝</text>
<text class="piece white-piece" x="160.0" y="298.0">♕</text>
<text class="piece white-piece" x="160.0" y="266.0">♙</text>
<text class="piece black-piece" x="160.0" y="106.0">♟</text>
<text class="piece black-piece" x="160.0" y="74.0">♛</text>
<text class="piece white-piece" x="192.0" y="298.0">♔</text>
<text class="piece white-piece" x="192.0" y="202.0">♙</text>
<text class="piece black-piece" x="192.0" y="170.0">♟</text>
<text class="piece black-piece" x="192.0" y="74.0">♚</text>
<text class="piece white-piece" x="224.0" y="298.0">♗</text>
<text class="piece white-piece" x="224.0" y="266.0">♙</text>
<text class="piece white-piece" x="224.0" y="234.0">♘</text>
<text class="piece black-piece" x="224.0" y="106.0">♟</text>
<text class="piece black-piece" x="224.0" y="74.0">♝</text>
<text class="piece white-piece" x="256.0" y="266.0">♙</text>
<text class="piece black-piece" x="256.0" y="106.0">♟</text>
<text class="piece black-piece" x="256.0" y="74.0">♞</text>
<text class="piece white-piece" x="288.0" y="298.0">♖</text>
<text class="piece white-piece" x="288.0" y="266.0">♙</text>
<text class="piece black-piece" x="288.0" y="106.0">♟</text>
<text class="piece black-piece" x="288.0" y="74.0">♜</text>
</g>
<g opacity="0"><animate attributeName="opacity" values="0;0;0;0;1;0;0;0;0;0;0;0;0;0" dur="14s" repeatCount="indefinite" calcMode="discrete"/>
<text class="piece white-piece" x="64.0" y="298.0">♖</text>
<text class="piece white-piece" x="64.0" y="266.0">♙</text>
<text class="piece black-piece" x="64.0" y="106.0">♟</text>
<text class="piece black-piece" x="64.0" y="74.0">♜</text>
<text class="piece white-piece" x="96.0" y="298.0">♘</text>
<text class="piece white-piece" x="96.0" y="266.0">♙</text>
<text class="piece black-piece" x="96.0" y="106.0">♟</text>
<text class="piece black-piece" x="96.0" y="74.0">♞</text>
<text class="piece white-piece" x="128.0" y="298.0">♗</text>
<text class="piece white-piece" x="128.0" y="266.0">♙</text>
<text class="piece black-piece" x="128.0" y="106.0">♟</text>
<text class="piece black-piece" x="128.0" y="74.0">♝</text>
<text class="piece white-piece" x="160.0" y="298.0">♕</text>
<text class="piece white-piece" x="160.0" y="266.0">♙</text>
<text class="piece black-piece" x="160.0" y="138.0">♟</text>
<text class="piece black-piece" x="160.0" y="74.0">♛</text>
<text class="piece white-piece" x="192.0" y="298.0">♔</text>
<text class="piece white-piece" x="192.0" y="202.0">♙</text>
<text class="piece black-piece" x="192.0" y="170.0">♟</text>
<text class="piece black-piece" x="192.0" y="74.0">♚</text>
<text class="piece white-piece" x="224.0" y="298.0">♗</text>
<text class="piece white-piece" x="224.0" y="266.0">♙</text>
<text class="piece white-piece" x="224.0" y="234.0">♘</text>
<text class="piece black-piece" x="224.0" y="106.0">♟</text>
<text class="piece black-piece" x="224.0" y="74.0">♝</text>
<text class="piece white-piece" x="256.0" y="266.0">♙</text>
<text class="piece black-piece" x="256.0" y="106.0">♟</text>
<text class="piece black-piece" x="256.0" y="74.0">♞</text>
<text class="piece white-piece" x="288.0" y="298.0">♖</text>
<text class="piece white-piece" x="288.0" y="266.0">♙</text>
<text class="piece black-piece" x="288.0" y="106.0">♟</text>
<text class="piece black-piece" x="288.0" y="74.0">♜</text>
</g>
<g opacity="0"><animate attributeName="opacity" values="0;0;0;0;0;1;0;0;0;0;0;0;0;0" dur="14s" repeatCount="indefinite" calcMode="discrete"/>
<text class="piece white-piece" x="64.0" y="298.0">♖</text>
<text class="piece white-piece" x="64.0" y="266.0">♙</text>
<text class="piece black-piece" x="64.0" y="106.0">♟</text>
<text class="piece black-piece" x="64.0" y="74.0">♜</text>
<text class="piece white-piece" x="96.0" y="298.0">♘</text>
<text class="piece white-piece" x="96.0" y="266.0">♙</text>
<text class="piece black-piece" x="96.0" y="106.0">♟</text>
<text class="piece black-piece" x="96.0" y="74.0">♞</text>
<text class="piece white-piece" x="128.0" y="298.0">♗</text>
<text class="piece white-piece" x="128.0" y="266.0">♙</text>
<text class="piece white-piece" x="128.0" y="202.0">♗</text>
<text class="piece black-piece" x="128.0" y="106.0">♟</text>
<text class="piece black-piece" x="128.0" y="74.0">♝</text>
<text class="piece white-piece" x="160.0" y="298.0">♕</text>
<text class="piece white-piece" x="160.0" y="266.0">♙</text>
<text class="piece black-piece" x="160.0" y="138.0">♟</text>
<text class="piece black-piece" x="160.0" y="74.0">♛</text>
<text class="piece white-piece" x="192.0" y="298.0">♔</text>
<text class="piece white-piece" x="192.0" y="202.0">♙</text>
<text class="piece black-piece" x="192.0" y="170.0">♟</text>
<text class="piece black-piece" x="192.0" y="74.0">♚</text>
<text class="piece white-piece" x="224.0" y="266.0">♙</text>
<text class="piece white-piece" x="224.0" y="234.0">♘</text>
<text class="piece black-piece" x="224.0" y="106.0">♟</text>
<text class="piece black-piece" x="224.0" y="74.0">♝</text>
<text class="piece white-piece" x="256.0" y="266.0">♙</text>
<text class="piece black-piece" x="256.0" y="106.0">♟</text>
<text class="piece black-piece" x="256.0" y="74.0">♞</text>
<text class="piece white-piece" x="288.0" y="298.0">♖</text>
<text class="piece white-piece" x="288.0" y="266.0">♙</text>
<text class="piece black-piece" x="288.0" y="106.0">♟</text>
<text class="piece black-piece" x="288.0" y="74.0">♜</text>
</g>
<g opacity="0"><animate attributeName="opacity" values="0;0;0;0;0;0;1;0;0;0;0;0;0;0" dur="14s" repeatCount="indefinite" calcMode="discrete"/>
<text class="piece white-piece" x="64.0" y="298.0">♖</text>
<text class="piece white-piece" x="64.0" y="266.0">♙</text>
<text class="piece black-piece" x="64.0" y="106.0">♟</text>
<text class="piece black-piece" x="64.0" y="74.0">♜</text>
<text class="piece white-piece" x="96.0" y="298.0">♘</text>
<text class="piece white-piece" x="96.0" y="266.0">♙</text>
<text class="piece black-piece" x="96.0" y="106.0">♟</text>
<text class="piece black-piece" x="96.0" y="74.0">♞</text>
<text class="piece white-piece" x="128.0" y="298.0">♗</text>
<text class="piece white-piece" x="128.0" y="266.0">♙</text>
<text class="piece white-piece" x="128.0" y="202.0">♗</text>
<text class="piece black-piece" x="128.0" y="106.0">♟</text>
<text class="piece white-piece" x="160.0" y="298.0">♕</text>
<text class="piece white-piece" x="160.0" y="266.0">♙</text>
<text class="piece black-piece" x="160.0" y="138.0">♟</text>
<text class="piece black-piece" x="160.0" y="74.0">♛</text>
<text class="piece white-piece" x="192.0" y="298.0">♔</text>
<text class="piece white-piece" x="192.0" y="202.0">♙</text>
<text class="piece black-piece" x="192.0" y="170.0">♟</text>
<text class="piece black-piece" x="192.0" y="74.0">♚</text>
<text class="piece white-piece" x="224.0" y="266.0">♙</text>
<text class="piece white-piece" x="224.0" y="234.0">♘</text>
<text class="piece black-piece" x="224.0" y="106.0">♟</text>
<text class="piece black-piece" x="224.0" y="74.0">♝</text>
<text class="piece white-piece" x="256.0" y="266.0">♙</text>
<text class="piece black-piece" x="256.0" y="202.0">♝</text>
<text class="piece black-piece" x="256.0" y="106.0">♟</text>
<text class="piece black-piece" x="256.0" y="74.0">♞</text>
<text class="piece white-piece" x="288.0" y="298.0">♖</text>
<text class="piece white-piece" x="288.0" y="266.0">♙</text>
<text class="piece black-piece" x="288.0" y="106.0">♟</text>
<text class="piece black-piece" x="288.0" y="74.0">♜</text>
</g>
<g opacity="0"><animate attributeName="opacity" values="0;0;0;0;0;0;0;1;0;0;0;0;0;0" dur="14s" repeatCount="indefinite" calcMode="discrete"/>
<text class="piece white-piece" x="64.0" y="298.0">♖</text>
<text class="piece white-piece" x="64.0" y="266.0">♙</text>
<text class="piece black-piece" x="64.0" y="106.0">♟</text>
<text class="piece black-piece" x="64.0" y="74.0">♜</text>
<text class="piece white-piece" x="96.0" y="266.0">♙</text>
<text class="piece black-piece" x="96.0" y="106.0">♟</text>
<text class="piece black-piece" x="96.0" y="74.0">♞</text>
<text class="piece white-piece" x="128.0" y="298.0">♗</text>
<text class="piece white-piece" x="128.0" y="266.0">♙</text>
<text class="piece white-piece" x="128.0" y="234.0">♘</text>
<text class="piece white-piece" x="128.0" y="202.0">♗</text>
<text class="piece black-piece" x="128.0" y="106.0">♟</text>
<text class="piece white-piece" x="160.0" y="298.0">♕</text>
<text class="piece white-piece" x="160.0" y="266.0">♙</text>
<text class="piece black-piece" x="160.0" y="138.0">♟</text>
<text class="piece black-piece" x="160.0" y="74.0">♛</text>
<text class="piece white-piece" x="192.0" y="298.0">♔</text>
<text class="piece white-piece" x="192.0" y="202.0">♙</text>
<text class="piece black-piece" x="192.0" y="170.0">♟</text>
<text class="piece black-piece" x="192.0" y="74.0">♚</text>
<text class="piece white-piece" x="224.0" y="266.0">♙</text>
<text class="piece white-piece" x="224.0" y="234.0">♘</text>
<text class="piece black-piece" x="224.0" y="106.0">♟</text>
<text class="piece black-piece" x="224.0" y="74.0">♝</text>
<text class="piece white-piece" x="256.0" y="266.0">♙</text>
<text class="piece black-piece" x="256.0" y="202.0">♝</text>
<text class="piece black-piece" x="256.0" y="106.0">♟</text>
<text class="piece black-piece" x="256.0" y="74.0">♞</text>
<text class="piece white-piece" x="288.0" y="298.0">♖</text>
<text class="piece white-piece" x="288.0" y="266.0">♙</text>
<text class="piece black-piece" x="288.0" y="106.0">♟</text>
<text class="piece black-piece" x="288.0" y="74.0">♜</text>
</g>
<g opacity="0"><animate attributeName="opacity" values="0;0;0;0;0;0;0;0;1;0;0;0;0;0" dur="14s" repeatCount="indefinite" calcMode="discrete"/>
<text class="piece white-piece" x="64.0" y="298.0">♖</text>
<text class="piece white-piece" x="64.0" y="266.0">♙</text>
<text class="piece black-piece" x="64.0" y="106.0">♟</text>
<text class="piece black-piece" x="64.0" y="74.0">♜</text>
<text class="piece white-piece" x="96.0" y="266.0">♙</text>
<text class="piece black-piece" x="96.0" y="106.0">♟</text>
<text class="piece black-piece" x="96.0" y="74.0">♞</text>
<text class="piece white-piece" x="128.0" y="298.0">♗</text>
<text class="piece white-piece" x="128.0" y="266.0">♙</text>
<text class="piece white-piece" x="128.0" y="234.0">♘</text>
<text class="piece white-piece" x="128.0" y="202.0">♗</text>
<text class="piece black-piece" x="128.0" y="106.0">♟</text>
<text class="piece white-piece" x="160.0" y="298.0">♕</text>
<text class="piece white-piece" x="160.0" y="266.0">♙</text>
<text class="piece black-piece" x="160.0" y="138.0">♟</text>
<text class="piece black-piece" x="160.0" y="74.0">♛</text>
<text class="piece white-piece" x="192.0" y="298.0">♔</text>
<text class="piece white-piece" x="192.0" y="202.0">♙</text>
<text class="piece black-piece" x="192.0" y="170.0">♟</text>
<text class="piece black-piece" x="192.0" y="74.0">♚</text>
<text class="piece white-piece" x="224.0" y="266.0">♙</text>
<text class="piece white-piece" x="224.0" y="234.0">♘</text>
<text class="piece black-piece" x="224.0" y="106.0">♟</text>
<text class="piece black-piece" x="224.0" y="74.0">♝</text>
<text class="piece white-piece" x="256.0" y="266.0">♙</text>
<text class="piece black-piece" x="256.0" y="202.0">♝</text>
<text class="piece black-piece" x="256.0" y="138.0">♟</text>
<text class="piece black-piece" x="256.0" y="74.0">♞</text>
<text class="piece white-piece" x="288.0" y="298.0">♖</text>
<text class="piece white-piece" x="288.0" y="266.0">♙</text>
<text class="piece black-piece" x="288.0" y="106.0">♟</text>
<text class="piece black-piece" x="288.0" y="74.0">♜</text>
</g>
<g opacity="0"><animate attributeName="opacity" values="0;0;0;0;0;0;0;0;0;1;0;0;0;0" dur="14s" repeatCount="indefinite" calcMode="discrete"/>
<text class="piece white-piece" x="64.0" y="298.0">♖</text>
<text class="piece white-piece" x="64.0" y="266.0">♙</text>
<text class="piece black-piece" x="64.0" y="106.0">♟</text>
<text class="piece black-piece" x="64.0" y="74.0">♜</text>
<text class="piece white-piece" x="96.0" y="266.0">♙</text>
<text class="piece black-piece" x="96.0" y="106.0">♟</text>
<text class="piece black-piece" x="96.0" y="74.0">♞</text>
<text class="piece white-piece" x="128.0" y="298.0">♗</text>
<text class="piece white-piece" x="128.0" y="266.0">♙</text>
<text class="piece white-piece" x="128.0" y="234.0">♘</text>
<text class="piece white-piece" x="128.0" y="202.0">♗</text>
<text class="piece black-piece" x="128.0" y="106.0">♟</text>
<text class="piece white-piece" x="160.0" y="298.0">♕</text>
<text class="piece white-piece" x="160.0" y="266.0">♙</text>
<text class="piece black-piece" x="160.0" y="138.0">♟</text>
<text class="piece black-piece" x="160.0" y="74.0">♛</text>
<text class="piece white-piece" x="192.0" y="298.0">♔</text>
<text class="piece white-piece" x="192.0" y="202.0">♙</text>
<text class="piece white-piece" x="192.0" y="170.0">♘</text>
<text class="piece black-piece" x="192.0" y="74.0">♚</text>
<text class="piece white-piece" x="224.0" y="266.0">♙</text>
<text class="piece black-piece" x="224.0" y="106.0">♟</text>
<text class="piece black-piece" x="224.0" y="74.0">♝</text>
<text class="piece white-piece" x="256.0" y="266.0">♙</text>
<text class="piece black-piece" x="256.0" y="202.0">♝</text>
<text class="piece black-piece" x="256.0" y="138.0">♟</text>
<text class="piece black-piece" x="256.0" y="74.0">♞</text>
<text class="piece white-piece" x="288.0" y="298.0">♖</text>
<text class="piece white-piece" x="288.0" y="266.0">♙</text>
<text class="piece black-piece" x="288.0" y="106.0">♟</text>
<text class="piece black-piece" x="288.0" y="74.0">♜</text>
</g>
<g opacity="0"><animate attributeName="opacity" values="0;0;0;0;0;0;0;0;0;0;1;0;0;0" dur="14s" repeatCount="indefinite" calcMode="discrete"/>
<text class="piece white-piece" x="64.0" y="298.0">♖</text>
<text class="piece white-piece" x="64.0" y="266.0">♙</text>
<text class="piece black-piece" x="64.0" y="106.0">♟</text>
<text class="piece black-piece" x="64.0" y="74.0">♜</text>
<text class="piece white-piece" x="96.0" y="266.0">♙</text>
<text class="piece black-piece" x="96.0" y="106.0">♟</text>
<text class="piece black-piece" x="96.0" y="74.0">♞</text>
<text class="piece white-piece" x="128.0" y="298.0">♗</text>
<text class="piece white-piece" x="128.0" y="266.0">♙</text>
<text class="piece white-piece" x="128.0" y="234.0">♘</text>
<text class="piece white-piece" x="128.0" y="202.0">♗</text>
<text class="piece black-piece" x="128.0" y="106.0">♟</text>
<text class="piece black-piece" x="160.0" y="298.0">♝</text>
<text class="piece white-piece" x="160.0" y="266.0">♙</text>
<text class="piece black-piece" x="160.0" y="138.0">♟</text>
<text class="piece black-piece" x="160.0" y="74.0">♛</text>
<text class="piece white-piece" x="192.0" y="298.0">♔</text>
<text class="piece white-piece" x="192.0" y="202.0">♙</text>
<text class="piece white-piece" x="192.0" y="170.0">♘</text>
<text class="piece black-piece" x="192.0" y="74.0">♚</text>
<text class="piece white-piece" x="224.0" y="266.0">♙</text>
<text class="piece black-piece" x="224.0" y="106.0">♟</text>
<text class="piece black-piece" x="224.0" y="74.0">♝</text>
<text class="piece white-piece" x="256.0" y="266.0">♙</text>
<text class="piece black-piece" x="256.0" y="138.0">♟</text>
<text class="piece black-piece" x="256.0" y="74.0">♞</text>
<text class="piece white-piece" x="288.0" y="298.0">♖</text>
<text class="piece white-piece" x="288.0" y="266.0">♙</text>
<text class="piece black-piece" x="288.0" y="106.0">♟</text>
<text class="piece black-piece" x="288.0" y="74.0">♜</text>
</g>
<g opacity="0"><animate attributeName="opacity" values="0;0;0;0;0;0;0;0;0;0;0;1;0;0" dur="14s" repeatCount="indefinite" calcMode="discrete"/>
<text class="piece white-piece" x="64.0" y="298.0">♖</text>
<text class="piece white-piece" x="64.0" y="266.0">♙</text>
<text class="piece black-piece" x="64.0" y="106.0">♟</text>
<text class="piece black-piece" x="64.0" y="74.0">♜</text>
<text class="piece white-piece" x="96.0" y="266.0">♙</text>
<text class="piece black-piece" x="96.0" y="106.0">♟</text>
<text class="piece black-piece" x="96.0" y="74.0">♞</text>
<text class="piece white-piece" x="128.0" y="298.0">♗</text>
<text class="piece white-piece" x="128.0" y="266.0">♙</text>
<text class="piece white-piece" x="128.0" y="234.0">♘</text>
<text class="piece black-piece" x="128.0" y="106.0">♟</text>
<text class="piece black-piece" x="160.0" y="298.0">♝</text>
<text class="piece white-piece" x="160.0" y="266.0">♙</text>
<text class="piece black-piece" x="160.0" y="138.0">♟</text>
<text class="piece black-piece" x="160.0" y="74.0">♛</text>
<text class="piece white-piece" x="192.0" y="298.0">♔</text>
<text class="piece white-piece" x="192.0" y="202.0">♙</text>
<text class="piece white-piece" x="192.0" y="170.0">♘</text>
<text class="piece black-piece" x="192.0" y="74.0">♚</text>
<text class="piece white-piece" x="224.0" y="266.0">♙</text>
<text class="piece white-piece" x="224.0" y="106.0">♗</text>
<text class="piece black-piece" x="224.0" y="74.0">♝</text>
<text class="piece white-piece" x="256.0" y="266.0">♙</text>
<text class="piece black-piece" x="256.0" y="138.0">♟</text>
<text class="piece black-piece" x="256.0" y="74.0">♞</text>
<text class="piece white-piece" x="288.0" y="298.0">♖</text>
<text class="piece white-piece" x="288.0" y="266.0">♙</text>
<text class="piece black-piece" x="288.0" y="106.0">♟</text>
<text class="piece black-piece" x="288.0" y="74.0">♜</text>
</g>
<g opacity="0"><animate attributeName="opacity" values="0;0;0;0;0;0;0;0;0;0;0;0;1;0" dur="14s" repeatCount="indefinite" calcMode="discrete"/>
<text class="piece white-piece" x="64.0" y="298.0">♖</text>
<text class="piece white-piece" x="64.0" y="266.0">♙</text>
<text class="piece black-piece" x="64.0" y="106.0">♟</text>
<text class="piece black-piece" x="64.0" y="74.0">♜</text>
<text class="piece white-piece" x="96.0" y="266.0">♙</text>
<text class="piece black-piece" x="96.0" y="106.0">♟</text>
<text class="piece black-piece" x="96.0" y="74.0">♞</text>
<text class="piece white-piece" x="128.0" y="298.0">♗</text>
<text class="piece white-piece" x="128.0" y="266.0">♙</text>
<text class="piece white-piece" x="128.0" y="234.0">♘</text>
<text class="piece black-piece" x="128.0" y="106.0">♟</text>
<text class="piece black-piece" x="160.0" y="298.0">♝</text>
<text class="piece white-piece" x="160.0" y="266.0">♙</text>
<text class="piece black-piece" x="160.0" y="138.0">♟</text>
<text class="piece black-piece" x="160.0" y="74.0">♛</text>
<text class="piece white-piece" x="192.0" y="298.0">♔</text>
<text class="piece white-piece" x="192.0" y="202.0">♙</text>
<text class="piece white-piece" x="192.0" y="170.0">♘</text>
<text class="piece black-piece" x="192.0" y="106.0">♚</text>
<text class="piece white-piece" x="224.0" y="266.0">♙</text>
<text class="piece white-piece" x="224.0" y="106.0">♗</text>
<text class="piece black-piece" x="224.0" y="74.0">♝</text>
<text class="piece white-piece" x="256.0" y="266.0">♙</text>
<text class="piece black-piece" x="256.0" y="138.0">♟</text>
<text class="piece black-piece" x="256.0" y="74.0">♞</text>
<text class="piece white-piece" x="288.0" y="298.0">♖</text>
<text class="piece white-piece" x="288.0" y="266.0">♙</text>
<text class="piece black-piece" x="288.0" y="106.0">♟</text>
<text class="piece black-piece" x="288.0" y="74.0">♜</text>
</g>
<g opacity="0"><animate attributeName="opacity" values="0;0;0;0;0;0;0;0;0;0;0;0;0;1" dur="14s" repeatCount="indefinite" calcMode="discrete"/>
<text class="piece white-piece" x="64.0" y="298.0">♖</text>
<text class="piece white-piece" x="64.0" y="266.0">♙</text>
<text class="piece black-piece" x="64.0" y="106.0">♟</text>
<text class="piece black-piece" x="64.0" y="74.0">♜</text>
<text class="piece white-piece" x="96.0" y="266.0">♙</text>
<text class="piece black-piece" x="96.0" y="106.0">♟</text>
<text class="piece black-piece" x="96.0" y="74.0">♞</text>
<text class="piece white-piece" x="128.0" y="298.0">♗</text>
<text class="piece white-piece" x="128.0" y="266.0">♙</text>
<text class="piece black-piece" x="128.0" y="106.0">♟</text>
<text class="piece black-piece" x="160.0" y="298.0">♝</text>
<text class="piece white-piece" x="160.0" y="266.0">♙</text>
<text class="piece white-piece" x="160.0" y="170.0">♘</text>
<text class="piece black-piece" x="160.0" y="138.0">♟</text>
<text class="piece black-piece" x="160.0" y="74.0">♛</text>
<text class="piece white-piece" x="192.0" y="298.0">♔</text>
<text class="piece white-piece" x="192.0" y="202.0">♙</text>
<text class="piece white-piece" x="192.0" y="170.0">♘</text>
<text class="piece black-piece" x="192.0" y="106.0">♚</text>
<text class="piece white-piece" x="224.0" y="266.0">♙</text>
<text class="piece white-piece" x="224.0" y="106.0">♗</text>
<text class="piece black-piece" x="224.0" y="74.0">♝</text>
<text class="piece white-piece" x="256.0" y="266.0">♙</text>
<text class="piece black-piece" x="256.0" y="138.0">♟</text>
<text class="piece black-piece" x="256.0" y="74.0">♞</text>
<text class="piece white-piece" x="288.0" y="298.0">♖</text>
<text class="piece white-piece" x="288.0" y="266.0">♙</text>
<text class="piece black-piece" x="288.0" y="106.0">♟</text>
<text class="piece black-piece" x="288.0" y="74.0">♜</text>
</g>

  <rect class="box" x="340" y="56" width="220" height="214" rx="10"/>
  <text class="prompt" x="360" y="36">moves.pgn</text>
  <text class="move" x="360" y="82">1. e4</text>
<text class="move-hot" x="360" y="82" opacity="0">1. e4<animate attributeName="opacity" values="0;1;0;0;0;0;0;0;0;0;0;0;0;0" dur="14s" repeatCount="indefinite" calcMode="discrete"/></text>
<text class="move" x="360" y="108">1... e5</text>
<text class="move-hot" x="360" y="108" opacity="0">1... e5<animate attributeName="opacity" values="0;0;1;0;0;0;0;0;0;0;0;0;0;0" dur="14s" repeatCount="indefinite" calcMode="discrete"/></text>
<text class="move" x="360" y="134">2. Nf3</text>
<text class="move-hot" x="360" y="134" opacity="0">2. Nf3<animate attributeName="opacity" values="0;0;0;1;0;0;0;0;0;0;0;0;0;0" dur="14s" repeatCount="indefinite" calcMode="discrete"/></text>
<text class="move" x="360" y="160">2... d6</text>
<text class="move-hot" x="360" y="160" opacity="0">2... d6<animate attributeName="opacity" values="0;0;0;0;1;0;0;0;0;0;0;0;0;0" dur="14s" repeatCount="indefinite" calcMode="discrete"/></text>
<text class="move" x="360" y="186">3. Bc4</text>
<text class="move-hot" x="360" y="186" opacity="0">3. Bc4<animate attributeName="opacity" values="0;0;0;0;0;1;0;0;0;0;0;0;0;0" dur="14s" repeatCount="indefinite" calcMode="discrete"/></text>
<text class="move" x="360" y="212">3... Bg4</text>
<text class="move-hot" x="360" y="212" opacity="0">3... Bg4<animate attributeName="opacity" values="0;0;0;0;0;0;1;0;0;0;0;0;0;0" dur="14s" repeatCount="indefinite" calcMode="discrete"/></text>
<text class="move" x="360" y="238">4. Nc3</text>
<text class="move-hot" x="360" y="238" opacity="0">4. Nc3<animate attributeName="opacity" values="0;0;0;0;0;0;0;1;0;0;0;0;0;0" dur="14s" repeatCount="indefinite" calcMode="discrete"/></text>
<text class="move" x="505" y="82">4... g6</text>
<text class="move-hot" x="505" y="82" opacity="0">4... g6<animate attributeName="opacity" values="0;0;0;0;0;0;0;0;1;0;0;0;0;0" dur="14s" repeatCount="indefinite" calcMode="discrete"/></text>
<text class="move" x="505" y="108">5. Nxe5</text>
<text class="move-hot" x="505" y="108" opacity="0">5. Nxe5<animate attributeName="opacity" values="0;0;0;0;0;0;0;0;0;1;0;0;0;0" dur="14s" repeatCount="indefinite" calcMode="discrete"/></text>
<text class="move" x="505" y="134">5... Bxd1</text>
<text class="move-hot" x="505" y="134" opacity="0">5... Bxd1<animate attributeName="opacity" values="0;0;0;0;0;0;0;0;0;0;1;0;0;0" dur="14s" repeatCount="indefinite" calcMode="discrete"/></text>
<text class="move" x="505" y="160">6. Bxf7+</text>
<text class="move-hot" x="505" y="160" opacity="0">6. Bxf7+<animate attributeName="opacity" values="0;0;0;0;0;0;0;0;0;0;0;1;0;0" dur="14s" repeatCount="indefinite" calcMode="discrete"/></text>
<text class="move" x="505" y="186">6... Ke7</text>
<text class="move-hot" x="505" y="186" opacity="0">6... Ke7<animate attributeName="opacity" values="0;0;0;0;0;0;0;0;0;0;0;0;1;0" dur="14s" repeatCount="indefinite" calcMode="discrete"/></text>
<text class="move" x="505" y="212">7. Nd5#</text>
<text class="move-hot" x="505" y="212" opacity="0">7. Nd5#<animate attributeName="opacity" values="0;0;0;0;0;0;0;0;0;0;0;0;0;1" dur="14s" repeatCount="indefinite" calcMode="discrete"/></text>

  <rect class="box" x="590" y="56" width="260" height="214" rx="10"/>
  <text class="prompt" x="610" y="84">engine</text>
  <text class="status" x="610" y="108" opacity="0">move: start<animate attributeName="opacity" values="1;0;0;0;0;0;0;0;0;0;0;0;0;0" dur="14s" repeatCount="indefinite" calcMode="discrete"/></text>
<text class="status" x="610" y="108" opacity="0">move: 1. e4<animate attributeName="opacity" values="0;1;0;0;0;0;0;0;0;0;0;0;0;0" dur="14s" repeatCount="indefinite" calcMode="discrete"/></text>
<text class="status" x="610" y="108" opacity="0">move: 1... e5<animate attributeName="opacity" values="0;0;1;0;0;0;0;0;0;0;0;0;0;0" dur="14s" repeatCount="indefinite" calcMode="discrete"/></text>
<text class="status" x="610" y="108" opacity="0">move: 2. Nf3<animate attributeName="opacity" values="0;0;0;1;0;0;0;0;0;0;0;0;0;0" dur="14s" repeatCount="indefinite" calcMode="discrete"/></text>
<text class="status" x="610" y="108" opacity="0">move: 2... d6<animate attributeName="opacity" values="0;0;0;0;1;0;0;0;0;0;0;0;0;0" dur="14s" repeatCount="indefinite" calcMode="discrete"/></text>
<text class="status" x="610" y="108" opacity="0">move: 3. Bc4<animate attributeName="opacity" values="0;0;0;0;0;1;0;0;0;0;0;0;0;0" dur="14s" repeatCount="indefinite" calcMode="discrete"/></text>
<text class="status" x="610" y="108" opacity="0">move: 3... Bg4<animate attributeName="opacity" values="0;0;0;0;0;0;1;0;0;0;0;0;0;0" dur="14s" repeatCount="indefinite" calcMode="discrete"/></text>
<text class="status" x="610" y="108" opacity="0">move: 4. Nc3<animate attributeName="opacity" values="0;0;0;0;0;0;0;1;0;0;0;0;0;0" dur="14s" repeatCount="indefinite" calcMode="discrete"/></text>
<text class="status" x="610" y="108" opacity="0">move: 4... g6<animate attributeName="opacity" values="0;0;0;0;0;0;0;0;1;0;0;0;0;0" dur="14s" repeatCount="indefinite" calcMode="discrete"/></text>
<text class="status" x="610" y="108" opacity="0">move: 5. Nxe5<animate attributeName="opacity" values="0;0;0;0;0;0;0;0;0;1;0;0;0;0" dur="14s" repeatCount="indefinite" calcMode="discrete"/></text>
<text class="status" x="610" y="108" opacity="0">move: 5... Bxd1<animate attributeName="opacity" values="0;0;0;0;0;0;0;0;0;0;1;0;0;0" dur="14s" repeatCount="indefinite" calcMode="discrete"/></text>
<text class="status" x="610" y="108" opacity="0">move: 6. Bxf7+<animate attributeName="opacity" values="0;0;0;0;0;0;0;0;0;0;0;1;0;0" dur="14s" repeatCount="indefinite" calcMode="discrete"/></text>
<text class="status" x="610" y="108" opacity="0">move: 6... Ke7<animate attributeName="opacity" values="0;0;0;0;0;0;0;0;0;0;0;0;1;0" dur="14s" repeatCount="indefinite" calcMode="discrete"/></text>
<text class="status" x="610" y="108" opacity="0">move: 7. Nd5#<animate attributeName="opacity" values="0;0;0;0;0;0;0;0;0;0;0;0;0;1" dur="14s" repeatCount="indefinite" calcMode="discrete"/></text>
  <text class="dim" x="610" y="142">queen sacrifice accepted</text>
  <text class="dim" x="610" y="168">king dragged to e7</text>
  <text class="dim" x="610" y="194">knight fork becomes mate</text>
  <text class="mate" x="610" y="236" opacity="0">CHECKMATE<animate attributeName="opacity" values="0;0;0;0;0;0;0;0;0;0;0;0;0;1" dur="14s" repeatCount="indefinite" calcMode="discrete"/></text>
</svg>
